<svg id="Layer_1" enable-background="new 0 0 512.026 512.026" height="512" viewBox="0 0 512.026 512.026" width="512" xmlns="http://www.w3.org/2000/svg"><g><path clip-rule="evenodd" d="m36 129.775h440v300h-440z" fill="#f6efea" fill-rule="evenodd"/><path clip-rule="evenodd" d="m256 129.775h220v300h-220z" fill="#eee1dc" fill-rule="evenodd"/><path d="m476 444.775h-440c-8.284 0-15-6.716-15-15v-300c0-8.284 6.716-15 15-15h440c8.284 0 15 6.716 15 15v300c0 8.284-6.716 15-15 15zm-425-30h410v-270h-410z" fill="#00429d"/><path d="m476 114.775h-220v30h205v270h-205v30h220c8.284 0 15-6.716 15-15v-300c0-8.284-6.716-15-15-15z" fill="#00347b"/><g><path d="m404.237 429.775h-296.474c-8.284 0-15-6.716-15-15v-350.5c0-8.284 6.716-15 15-15h296.475c8.284 0 15 6.716 15 15v350.5c-.001 8.284-6.717 15-15.001 15z" fill="#fff4f4"/></g><g><path d="m241 149.275h-83c-8.284 0-15-6.716-15-15s6.716-15 15-15h83c8.284 0 15 6.716 15 15s-6.716 15-15 15z" fill="#4793ff"/></g><g><path d="m210.188 209.275h-52.189c-8.284 0-15-6.716-15-15s6.716-15 15-15h52.189c8.284 0 15 6.716 15 15s-6.716 15-15 15z" fill="#4793ff"/></g><g><path d="m197.655 269.275h-39.656c-8.284 0-15-6.716-15-15s6.716-15 15-15h39.656c8.284 0 15 6.716 15 15s-6.716 15-15 15z" fill="#4793ff"/></g><g><path d="m472.646 138.149c-3.839 0-7.678-1.464-10.606-4.394l-61.519-61.519c-5.858-5.858-5.858-15.355 0-21.213l11.667-11.667c22.808-22.809 59.922-22.81 82.731 0 22.81 22.809 22.81 59.922 0 82.731l-11.667 11.667c-2.929 2.931-6.768 4.395-10.606 4.395z" fill="#ff435b"/></g><path d="m404.237 49.275h-148.237v380.5h148.238c8.284 0 15-6.716 15-15v-350.5c-.001-8.284-6.717-15-15.001-15z" fill="#f6efea"/><g><path d="m272.694 276.584c-3.928 0-7.758-1.544-10.607-4.394-3.771-3.771-5.256-9.259-3.901-14.417l21.909-83.428c1.364-5.196 5.404-9.266 10.589-10.669 5.185-1.405 10.726.074 14.525 3.873l61.519 61.519c3.799 3.799 5.276 9.339 3.873 14.525s-5.473 9.225-10.669 10.589l-83.428 21.909c-1.261.331-2.541.493-3.81.493z" fill="#fdbf00"/></g><g><path d="m197.655 328.775h-39.656c-8.284 0-15-6.716-15-15s6.716-15 15-15h39.656c8.284 0 15 6.716 15 15s-6.716 15-15 15z" fill="#4793ff"/></g><path d="m493.991 123.017-82.731-82.732-128.224 128.224 82.625 82.837z" fill="#00cb75"/><g><path d="m437 489.775h-362c-41.355 0-75-33.645-75-75 0-8.284 6.716-15 15-15h482c8.284 0 15 6.716 15 15 0 41.355-33.645 75-75 75z" fill="#00347b"/></g><path d="m497 399.775h-241v90h181c41.355 0 75-33.645 75-75 0-8.284-6.716-15-15-15z" fill="#001737"/></g></svg>